#!OML:ASF E:\id_vita\Project 1\Capture day 1\Session 1\Female.ASF
:FULLY-SPECIFIED
:DEGREES
947
root 21.404 16.4832 -5.18994 -144.464 -1.73513 -181.72
lowerback -9.19994 -1.65993 -1.15331
upperback -4.89703 -2.58393 1.77094
thorax 0.205977 -1.44965 2.2357
lowerneck -2.77563 1.33414 -5.43713
upperneck -9.69003 2.57605 3.10862
head -2.74107 1.61538 1.90063
rclavicle -8.15017e-015 2.98177e-015
rhumerus 93.2627 -6.33379 -53.3565
rradius 30.8182
rwrist 22.8055
rhand -35.2875 29.4131
rfingers 7.12502
rthumb -8.42222 -0.398937
lclavicle -8.15017e-015 2.98177e-015
lhumerus 95.2967 10.4642 60.6786
lradius 22.9775
lwrist -41.9254
lhand -38.6569 26.4712
lfingers 7.12502
lthumb -11.6728 56.126
rfemur -50.2889 4.22571 20.5977
rtibia 30.53
rfoot -12.6702 -8.03214
rtoes -9.77793
lfemur -16.9543 -7.3355 -22.2038
ltibia 21.3681
lfoot -4.22421 -2.89897
ltoes -8.27811
948
root 21.4046 16.4862 -5.18565 -144.456 -1.80897 -181.766
lowerback -9.20977 -1.65472 -1.14613
upperback -4.90724 -2.57873 1.77516
thorax 0.200417 -1.44753 2.23645
lowerneck -2.69179 1.30522 -5.30091
upperneck -9.6289 2.50581 2.91875
head -2.72517 1.57482 1.81361
rclavicle -5.36719e-015 -1.05356e-014
rhumerus 93.2134 -6.31627 -53.5624
rradius 30.8037
rwrist 23.1964
rhand -35.0983 29.6843
rfingers 7.12502
rthumb -8.23963 -0.135048
lclavicle -5.36719e-015 -1.05356e-014
lhumerus 95.4283 10.2094 61.0263
lradius 22.8233
lwrist -42.3889
lhand -38.6705 26.3496
lfingers 7.12502
lthumb -11.6859 56.0037
rfemur -50.3118 4.14697 20.5752
rtibia 30.5247
rfoot -12.6753 -7.97442
rtoes -9.64166
lfemur -17.0018 -7.38305 -22.2082
ltibia 21.3617
lfoot -4.12429 -2.91681
ltoes -7.70875
949
root 21.4056 16.4885 -5.18316 -144.471 -1.82724 -181.77
lowerback -9.23501 -1.66163 -1.12044
upperback -4.90912 -2.58999 1.7456
thorax 0.210521 -1.45421 2.18954
lowerneck -2.51257 1.28056 -5.1157
upperneck -9.68203 2.45461 2.87167
head -2.76837 1.5411 1.76504
rclavicle -4.47266e-015 -1.17283e-014
rhumerus 92.9715 -6.49794 -53.1628
rradius 31.0654
rwrist 22.9116
rhand -34.9466 29.9078
rfingers 7.12502
rthumb -8.09319 0.082726
lclavicle -4.47266e-015 -1.17283e-014
lhumerus 95.3801 10.0088 60.937
lradius 22.7895
lwrist -42.7809
lhand -38.7251 27.3011
lfingers 7.12502
lthumb -11.7386 56.9522
rfemur -50.3078 4.13824 20.5447
rtibia 30.524
rfoot -12.7247 -7.79467
rtoes -9.15589
lfemur -17.0061 -7.14581 -22.2717
ltibia 21.3443
lfoot -4.10486 -3.01838
ltoes -7.88498
950
root 21.4068 16.4898 -5.1821 -144.529 -1.78778 -181.771
lowerback -9.25176 -1.6737 -1.1351
upperback -4.90247 -2.60387 1.71653
thorax 0.226506 -1.4611 2.16562
lowerneck -2.46354 1.27551 -5.18995
upperneck -9.60424 2.44841 3.04938
head -2.75613 1.53085 1.83732
rclavicle -4.40308e-014 1.47101e-014
rhumerus 92.6302 -6.74892 -52.434
rradius 31.5063
rwrist 22.216
rhand -34.7413 29.8479
rfingers 7.12502
rthumb -7.89513 0.0153619
lclavicle -4.40308e-014 1.47101e-014
lhumerus 95.2715 9.94301 60.7232
lradius 22.8228
lwrist -42.7222
lhand -38.6538 28.1607
lfingers 7.12502
lthumb -11.6698 57.8156
rfemur -50.2498 4.16064 20.5073
rtibia 30.5247
rfoot -12.8282 -7.58633
rtoes -8.8101
lfemur -16.9378 -6.81318 -22.4011
ltibia 21.3296
lfoot -4.13573 -3.10359
ltoes -8.28792
951
root 21.4067 16.4911 -5.18095 -144.586 -1.77482 -181.773
lowerback -9.2956 -1.68547 -1.12923
upperback -4.88617 -2.61939 1.72644
thorax 0.268341 -1.46902 2.16904
lowerneck -2.62046 1.28552 -5.42303
upperneck -9.31332 2.45547 3.14441
head -2.63698 1.53094 1.91081
rclavicle 3.43897e-014 -2.98177e-015
rhumerus 92.4688 -6.6543 -51.9535
rradius 32.2999
rwrist 20.9531
rhand -33.9021 28.1434
rfingers 7.12502
rthumb -7.08511 -1.71805
lclavicle 3.43897e-014 -2.98177e-015
lhumerus 95.2613 9.86618 60.8868
lradius 22.7846
lwrist -42.718
lhand -38.5925 28.1317
lfingers 7.12502
lthumb -11.6107 57.79
rfemur -50.1883 4.13857 20.5208
rtibia 30.5252
rfoot -12.888 -7.56203
rtoes -8.69301
lfemur -16.8785 -6.69301 -22.4664
ltibia 21.3305
lfoot -4.08646 -3.1059
ltoes -8.05706
952
root 21.4068 16.4918 -5.17753 -144.656 -1.81218 -181.755
lowerback -9.32662 -1.68632 -1.05463
upperback -4.86006 -2.62472 1.74248
thorax 0.310487 -1.47234 2.14139
lowerneck -2.61673 1.36592 -5.2467
upperneck -9.09637 2.51632 2.8214
head -2.55724 1.55266 1.77042
rclavicle -3.76697e-014 5.56597e-015
rhumerus 92.5833 -6.3177 -52.7277
rradius 32.0322
rwrist 21.5984
rhand -33.9493 28.914
rfingers 7.12502
rthumb -7.13061 -0.945839
lclavicle -3.76697e-014 5.56597e-015
lhumerus 95.3895 9.6914 61.4584
lradius 22.624
lwrist -43.2244
lhand -38.6401 27.3238
lfingers 7.12502
lthumb -11.6566 56.9796
rfemur -50.1196 4.06148 20.6286
rtibia 30.5188
rfoot -12.8702 -7.63249
rtoes -9.24417
lfemur -16.8439 -6.59099 -22.4643
ltibia 21.3589
lfoot -4.05071 -3.20346
ltoes -7.95851
953
root 21.406 16.4916 -5.17265 -144.696 -1.83947 -181.76
lowerback -9.36933 -1.67971 -0.993952
upperback -4.85878 -2.6214 1.72471
thorax 0.331868 -1.4724 2.08771
lowerneck -2.68896 1.40647 -5.06089
upperneck -8.8368 2.54142 2.6689
head -2.4516 1.55298 1.68649
rclavicle 1.88845e-014 1.19271e-015
rhumerus 92.3896 -6.24109 -52.9903
rradius 31.5855
rwrist 23.4719
rhand -35.4814 29.2981
rfingers 7.12502
rthumb -8.60938 -0.506341
lclavicle 1.88845e-014 1.19271e-015
lhumerus 95.1941 9.7452 61.0967
lradius 22.7388
lwrist -43.0031
lhand -38.7025 26.7777
lfingers 7.12502
lthumb -11.7168 56.4301
rfemur -50.0726 3.99783 20.6753
rtibia 30.4752
rfoot -12.8188 -7.59927
rtoes -10.1381
lfemur -16.8776 -6.49923 -22.4892
ltibia 21.458
lfoot -4.12024 -3.30497
ltoes -8.0551
954
root 21.4068 16.492 -5.16738 -144.72 -1.85215 -181.783
lowerback -9.41367 -1.7209 -1.08691
upperback -4.86386 -2.67086 1.76526
thorax 0.358572 -1.49625 2.1754
lowerneck -2.91112 1.40748 -5.02672
upperneck -8.48881 2.53351 2.69423
head -2.29588 1.53813 1.68968
rclavicle -1.85864e-014 -1.61016e-014
rhumerus 92.2086 -6.27365 -52.7543
rradius 31.7986
rwrist 23.0672
rhand -35.1682 29.1616
rfingers 7.12502
rthumb -8.30713 -0.655078
lclavicle -1.85864e-014 -1.61016e-014
lhumerus 94.8903 9.96278 60.6447
lradius 22.9282
lwrist -42.2473
lhand -39.1056 26.049
lfingers 7.12502
lthumb -12.1055 55.6788
rfemur -50.0507 4.01349 20.6238
rtibia 30.4438
rfoot -12.7422 -7.60828
rtoes -10.2192
lfemur -16.9209 -6.40946 -22.5354
ltibia 21.5329
lfoot -4.20885 -3.38556
ltoes -8.36375
955
root 21.4097 16.4901 -5.1604 -144.822 -1.82102 -181.762
lowerback -9.38575 -1.7743 -1.23434
upperback -4.83194 -2.72776 1.86643
thorax 0.389792 -1.52022 2.35727
lowerneck -2.8431 1.45063 -4.93543
upperneck -8.48687 2.56467 2.42457
head -2.30123 1.55418 1.58421
rclavicle -2.72335e-014 9.14409e-015
rhumerus 92.1926 -6.13167 -52.6541
rradius 31.9538
rwrist 22.911
rhand -34.9544 28.7605
rfingers 7.12502
rthumb -8.10074 -1.06427
lclavicle -2.72335e-014 9.14409e-015
lhumerus 94.6363 10.1209 60.5412
lradius 22.9307
lwrist -42.5311
lhand -39.1746 25.7783
lfingers 7.12502
lthumb -12.172 55.4042
rfemur -49.9541 3.9422 20.7716
rtibia 30.3852
rfoot -12.555 -7.80791
rtoes -11.9622
lfemur -16.8974 -6.23781 -22.5705
ltibia 21.6429
lfoot -4.28718 -3.44146
ltoes -8.69286
956
root 21.4112 16.4962 -5.15629 -144.992 -1.7442 -181.667
lowerback -9.31205 -1.71823 -1.20422
upperback -4.81249 -2.65419 1.91286
thorax 0.366866 -1.48222 2.39787
lowerneck -2.90162 1.42041 -4.87635
upperneck -8.26173 2.4953 2.21593
head -2.20825 1.51384 1.50675
rclavicle -2.97183e-014 3.49861e-014
rhumerus 92.064 -6.0229 -52.6059
rradius 31.9318
rwrist 22.844
rhand -34.8664 28.9008
rfingers 7.12502
rthumb -8.01586 -0.9272
lclavicle -2.97183e-014 3.49861e-014
lhumerus 94.6164 9.8826 61.0454
lradius 22.8547
lwrist -43.1525
lhand -39.1229 25.8471
lfingers 7.12502
lthumb -12.1222 55.4759
rfemur -49.7653 4.03728 20.8101
rtibia 30.3817
rfoot -12.7256 -7.61464
rtoes -10.4972
lfemur -16.7309 -6.09287 -22.5591
ltibia 21.6448
lfoot -4.27643 -3.4111
ltoes -8.79344
